# xmcd
#
# Track frame offsets:
#	150
#	10962
#	21684
#	32084
#	47713
#	56469
#	71015
#	83944
#	99288
#	116313
#	126582
#	142310
#
# Disc length: 2126 seconds
#
# Revision: 1
# Processed by: cddbd v1.4PL0 Copyright (c) Steve Scherf et al.
# Submitted via: audiograbber 1.82.02
#
DISCID=ac084c0c
DTITLE=The Bootcuts - In The Comfort Of Your Own Home
DYEAR=2003
DGENRE=Country
TTITLE0=Bonfire Boogie
TTITLE1=Somethin' Special
TTITLE2=Long Goodbye
TTITLE3=Darlin', Wait For Me
TTITLE4=Flashing Yellow Light
TTITLE5=Forever And A Day
TTITLE6=Irregardless
TTITLE7=Rhonda
TTITLE8=Six Bux Waltz [Redux]
TTITLE9=Lovesick Blues
TTITLE10=Sunday Night
TTITLE11=My Baby
EXTD=
EXTT0=
EXTT1=
EXTT2=
EXTT3=
EXTT4=
EXTT5=
EXTT6=
EXTT7=
EXTT8=
EXTT9=
EXTT10=
EXTT11=
PLAYORDER=
